<svg width="1152" height="107" viewBox="0 0 1152 107" fill="none" xmlns="http://www.w3.org/2000/svg">
<path d="M86.8571 41.5452C57.4515 29.8592 29.2452 15.3854 0 2.87498V107H1152V14.5539C1107.95 14.5539 1068.17 34.8273 1025.14 43.6215C1010.59 46.5957 995.791 48.68 981.079 50.6288C977.28 51.1321 966.529 54.0503 962.794 51.4074C953.454 44.8001 938.621 46.5304 926.73 45.4382C890.061 42.0699 855.833 43.0888 821.587 27.4007C808.212 21.2735 795.439 13.6862 781.206 9.88234C761.977 4.7429 739.214 8.17925 719.718 11.1224L718.476 11.3098C680.52 17.0325 645.574 14.5539 607.238 14.5539C586.58 14.5539 551.588 8.39342 533.714 22.5994C526.809 28.0876 513.475 26.9991 505.143 25.7138C475.733 21.1773 447.475 -0.54467 417.778 0.539185C402.589 1.09351 385.775 13.4081 372.698 20.3934C360.808 26.7449 351.641 35.9336 340.698 43.6215C330.612 50.7075 327.97 53.3137 315.429 50.1098C276.172 40.0807 242.369 39.4799 207 16.8897C203.453 14.624 195.458 11.5094 189.714 12.3479C185.996 12.8907 182.208 15.3829 178.794 16.8897C168.633 21.3732 159.098 28.5766 149.587 34.4081C138.771 41.04 124.619 49.5907 112 49.5907C103.322 49.5907 95.2195 44.8685 86.8571 41.5452Z" fill="white"/>
</svg>
